<svg width="100" height="100" viewBox="0 0 100 100" fill="none" xmlns="http://www.w3.org/2000/svg">
<g clip-path="url(#clip0_1_290)">
<path d="M87.1185 78.4847C72.5315 96.8604 43.926 92.3138 37.2956 69.3916C36.9167 68.2549 36.7273 66.9288 36.5379 65.7922C51.8825 62.3823 66.8483 51.2053 68.1744 37.755C69.3111 25.6309 56.9974 22.0315 48.8515 28.8513C39.19 36.9973 32.3702 48.932 31.8018 61.6242C21.9509 62.9503 12.2895 60.2981 6.98515 50.6367C-1.91856 34.3451 10.0162 12.3697 25.9292 5.92876C27.6342 5.36044 26.8764 2.70827 25.1714 3.2766C3.19634 9.52843 -8.17009 40.2178 6.79571 58.4037C12.6684 65.4133 22.1404 67.6863 31.9913 66.5496C33.3174 79.4316 43.3577 89.6614 55.2922 93.6396C69.1213 98.1862 81.8138 91.5561 89.9598 80.7577C91.2862 79.0527 88.4442 76.9692 87.1185 78.4847ZM44.6838 40.2178C47.7148 36.0501 51.6931 31.3141 56.808 29.6091C61.7331 27.9041 63.4384 34.724 63.6275 37.755C63.817 41.5438 61.1648 44.9538 58.7021 47.6059C53.5875 53.4783 45.0627 58.5935 36.3484 60.8664C36.9167 53.4783 40.5161 46.2798 44.6838 40.2178Z" fill="white"/>
<path d="M97.7268 72.3301C92.4224 72.3301 86.9286 72.709 81.8138 74.035C79.7302 74.6034 80.6771 77.445 82.7613 77.0661C86.929 76.3083 91.2861 76.4978 95.4538 76.6872C95.2643 79.1496 95.0749 81.8018 94.696 84.2645C94.3171 86.1589 92.9911 89.0005 94.1277 90.8949C94.696 91.8424 95.6432 91.8424 96.5904 91.4632C98.8637 90.516 98.8637 86.5378 99.2426 84.4539C99.8109 81.0437 100 77.8235 100 74.4133C100 73.2773 98.8634 72.3301 97.7268 72.3301Z" fill="white"/>
</g>
<defs>
<clipPath id="clip0_1_290">
<rect width="100" height="100" fill="white"/>
</clipPath>
</defs>
</svg>
