<svg width="123" height="132" viewBox="0 0 123 132" fill="none" xmlns="http://www.w3.org/2000/svg">
<path fill-rule="evenodd" clip-rule="evenodd" d="M33.9759 110.831C51.9575 96.7283 62.9424 86.1393 83.504 63.0866C85.3124 61.0593 88.1415 57.892 89.7909 56.0481C103.378 40.8593 119.743 16.1972 122.384 6.9303C122.931 5.00827 123.185 0.622014 122.78 0.0822475C122.712 -0.0074822 122.712 0.212487 122.776 1.16526C123.071 5.55888 119.899 12.0666 110.612 26.1224C105.126 34.4253 98.7494 42.9895 93.1477 49.5782C88.8718 54.6075 67.8361 77.4781 66.9706 78.0379C66.7932 78.1528 67.5506 77.2205 68.6535 75.9663C80.4999 62.4922 84.3909 57.7138 90.8629 48.6902C95.8776 41.6986 98.592 37.2942 105.141 25.5218C107.604 21.093 107.543 21.2345 107.22 20.6805C106.399 19.2774 105.903 19.6045 103.7 23.0029C88.7596 46.049 78.5185 58.0377 60.2474 73.8709C55.331 78.1311 37.6028 91.9578 37.7114 91.4471C37.7737 91.1552 42.4598 86.1363 50.4063 77.8512C68.1857 59.314 78.1951 45.6323 87.0797 27.7235C89.5432 22.7578 89.783 21.5975 88.5388 20.6591C87.2252 19.6691 85.2378 21.7225 76.5148 33.0852C63.4505 50.1027 58.241 55.9444 46.0469 67.2493C43.2121 69.8773 38.1759 74.1682 38.2225 73.9157C38.235 73.8455 40.9206 70.487 44.1906 66.4527C52.3713 56.3589 57.4472 49.6504 57.3537 49.0556C57.2098 48.1383 56.3993 47.268 55.7397 47.3217C54.935 47.3873 53.5322 48.7344 50.6125 52.2457C44.2805 59.8608 37.332 66.6446 26.4369 75.8488C24.8068 77.2261 22.9385 78.8703 22.2855 79.5024C20.7665 80.9726 18.1069 82.9676 16.7167 83.6795C16.1218 83.9843 15.3822 84.3644 15.0734 84.524C13.9022 85.1299 18.352 83.5483 20.1369 82.7246C24.6101 80.6596 29.7713 77.0756 35.3789 72.1405C36.6647 71.0087 37.7496 70.1002 37.7887 70.122C37.8709 70.1681 36.7273 71.5288 31.13 78.0444C26.8392 83.0398 26.7474 83.1869 27.2553 84.2721C27.5779 84.9605 28.2334 85.5751 28.7939 85.7142C29.2181 85.8193 36.6658 80.0966 40.504 76.7165C49.7055 68.6128 54.3956 64.0711 59.9444 57.8921C65.5597 51.6396 69.0647 47.1871 77.4934 35.5998C82.6248 28.5454 85.3967 24.9241 86.4571 23.8885L87.1144 23.2468L86.6213 24.4269C85.0999 28.0667 78.9567 38.7711 75.14 44.4327C67.2113 56.1936 61.1666 63.396 46.6903 78.3312C34.5268 90.8802 32.1912 93.6581 32.7757 94.8811C33.4051 96.1991 34.3264 96.5715 35.7305 96.0765C37.6461 95.4012 56.6802 80.9227 63.0533 75.2934C69.3015 69.774 76.4246 62.8208 79.9368 58.8123C80.3096 58.3866 80.743 57.9577 80.8998 57.859C82.0523 57.134 69.5864 71.6317 62.207 79.5981C54.1231 88.325 47.4547 94.8649 37.8639 103.472C31.6627 109.037 14.5335 121.51 7.08785 125.882C0.190226 129.933 -0.0449085 130.094 0.0904543 130.676C0.231896 131.282 0.480014 131.625 0.984074 131.908C1.62516 132.269 3.17666 131.55 6.33409 129.431C7.49637 128.651 10.1426 127.038 12.216 125.847C14.2886 124.655 16.8373 123.163 17.88 122.532C19.8469 121.34 29.8237 114.087 33.9759 110.831ZM64.2431 80.7567C64.2596 80.67 64.3611 80.5892 64.4689 80.5774C64.5767 80.5656 64.563 80.6367 64.4394 80.735C64.3151 80.8336 64.2273 80.8433 64.2431 80.7567ZM65.1038 79.8257C65.167 79.7138 65.339 79.5832 65.4855 79.5355C65.6322 79.488 65.5804 79.5797 65.3707 79.7393C65.1602 79.899 65.0407 79.9377 65.1038 79.8257ZM66.0083 78.8717C66.094 78.745 66.2837 78.6026 66.4297 78.5553C66.5757 78.5081 66.5055 78.6118 66.2733 78.786C66.0416 78.9599 65.9221 78.9987 66.0083 78.8717ZM81.2317 57.3828C81.2955 57.2701 81.4509 57.1536 81.5768 57.1238C81.7029 57.0942 81.6508 57.1864 81.461 57.3288C81.2711 57.4713 81.168 57.4956 81.2317 57.3828ZM81.9504 56.5833C81.9668 56.4953 82.0531 56.4306 82.1422 56.4394C82.2311 56.4481 82.2176 56.5199 82.1122 56.599C82.0067 56.6782 81.9339 56.6711 81.9504 56.5833ZM14.2402 84.8121C14.1511 84.8033 14.0649 84.868 14.0482 84.9561C14.0321 85.0437 14.1049 85.0508 14.21 84.9718C14.3159 84.8925 14.3293 84.8207 14.2402 84.8121Z" fill="#FF7425"/>
</svg>
